<svg width="300" height="300" viewBox="0 0 300 300" fill="none" xmlns="http://www.w3.org/2000/svg">
<path d="M0 0H200V200H0V0Z" fill="#EB4D4B"/>
<path d="M200 0C213.132 0 226.136 2.58658 238.268 7.61205C250.401 12.6375 261.425 20.0035 270.711 29.2893C279.997 38.5752 287.362 49.5991 292.388 61.7317C297.413 73.8642 300 86.8678 300 100C300 113.132 297.413 126.136 292.388 138.268C287.362 150.401 279.997 161.425 270.711 170.711C261.425 179.997 250.401 187.362 238.268 192.388C226.136 197.413 213.132 200 200 200V0Z" fill="#EB4D4B"/>
<path d="M0 300V0L300 300H0Z" fill="#0FB9B1"/>
<path d="M0 200V0L200 200H0Z" fill="#34495E"/>
</svg>
